<?xml version="1.0" encoding="UTF-8"?>
<!DOCTYPE svg PUBLIC "-//W3C//DTD SVG 1.1//EN" "http://www.w3.org/Graphics/SVG/1.1/DTD/svg11.dtd">
<svg xmlns="http://www.w3.org/2000/svg" version="1.1" width="512px" height="512px" style="shape-rendering:geometricPrecision; text-rendering:geometricPrecision; image-rendering:optimizeQuality; fill-rule:evenodd; clip-rule:evenodd" xmlns:xlink="http://www.w3.org/1999/xlink">
<g><path style="opacity:1" fill="#000000" d="M 430.5,69.5 C 437.508,69.3337 444.508,69.5004 451.5,70C 462.68,75.8771 465.18,84.3771 459,95.5C 456.559,97.9686 453.726,99.802 450.5,101C 425.205,101.321 402.205,108.655 381.5,123C 364.87,135.242 350.037,149.408 337,165.5C 329,176.167 321,186.833 313,197.5C 289.501,233.161 266.501,269.161 244,305.5C 224.41,336.465 201.577,364.965 175.5,391C 158.962,406.185 140.295,418.185 119.5,427C 101.356,434.026 82.6895,436.693 63.5,435C 55.6793,430.857 52.5127,424.357 54,415.5C 55.9337,409.233 60.1004,405.399 66.5,404C 96.9757,403.289 123.642,392.956 146.5,373C 169.271,352.238 189.104,329.072 206,303.5C 234.273,258.898 262.939,214.564 292,170.5C 310.696,144.135 332.529,120.635 357.5,100C 379.347,83.7394 403.68,73.5727 430.5,69.5 Z"/></g>
</svg>
